<mxfile host="app.diagrams.net" modified="2023-08-18T07:13:58.903Z" agent="Mozilla/5.0 (Macintosh; Intel Mac OS X 10_15_7) AppleWebKit/537.36 (KHTML, like Gecko) Chrome/115.0.0.0 Safari/537.36" etag="7n5k-YkN13BiDcOXzCa4" version="21.6.8" type="github">
  <diagram name="第 1 页" id="5oMQ3ZsRyjnSFZF3tfnG">
    <mxGraphModel dx="1434" dy="678" grid="1" gridSize="10" guides="1" tooltips="1" connect="1" arrows="1" fold="1" page="1" pageScale="1" pageWidth="827" pageHeight="1169" math="0" shadow="0">
      <root>
        <mxCell id="0" />
        <mxCell id="1" parent="0" />
        <mxCell id="TIA-kVSFj0vNfFAjIC5h-1" value="" style="group" vertex="1" connectable="0" parent="1">
          <mxGeometry x="51" y="49.09562092634533" width="440" height="437.8087581473094" as="geometry" />
        </mxCell>
        <mxCell id="TIA-kVSFj0vNfFAjIC5h-2" value="1" style="ellipse;whiteSpace=wrap;html=1;aspect=fixed;" vertex="1" parent="TIA-kVSFj0vNfFAjIC5h-1">
          <mxGeometry x="400" y="198.90437907365467" width="40" height="40" as="geometry" />
        </mxCell>
        <mxCell id="TIA-kVSFj0vNfFAjIC5h-3" value="2" style="ellipse;whiteSpace=wrap;html=1;aspect=fixed;" vertex="1" parent="TIA-kVSFj0vNfFAjIC5h-1">
          <mxGeometry x="395.62952014676114" y="240.48671723720653" width="40" height="40" as="geometry" />
        </mxCell>
        <mxCell id="TIA-kVSFj0vNfFAjIC5h-4" value="3" style="ellipse;whiteSpace=wrap;html=1;aspect=fixed;" vertex="1" parent="TIA-kVSFj0vNfFAjIC5h-1">
          <mxGeometry x="382.70909152852016" y="280.2517076888147" width="40" height="40" as="geometry" />
        </mxCell>
        <mxCell id="TIA-kVSFj0vNfFAjIC5h-5" value="4" style="ellipse;whiteSpace=wrap;html=1;aspect=fixed;" vertex="1" parent="TIA-kVSFj0vNfFAjIC5h-1">
          <mxGeometry x="361.8033988749895" y="316.4614295321493" width="40" height="40" as="geometry" />
        </mxCell>
        <mxCell id="TIA-kVSFj0vNfFAjIC5h-6" value="5" style="ellipse;whiteSpace=wrap;html=1;aspect=fixed;" vertex="1" parent="TIA-kVSFj0vNfFAjIC5h-1">
          <mxGeometry x="333.8261212717716" y="347.53334416913356" width="40" height="40" as="geometry" />
        </mxCell>
        <mxCell id="TIA-kVSFj0vNfFAjIC5h-7" value="6" style="ellipse;whiteSpace=wrap;html=1;aspect=fixed;" vertex="1" parent="TIA-kVSFj0vNfFAjIC5h-1">
          <mxGeometry x="300" y="372.1094598305424" width="40" height="40" as="geometry" />
        </mxCell>
        <mxCell id="TIA-kVSFj0vNfFAjIC5h-8" value="7" style="ellipse;whiteSpace=wrap;html=1;aspect=fixed;" vertex="1" parent="TIA-kVSFj0vNfFAjIC5h-1">
          <mxGeometry x="261.8033988749895" y="389.1156823326854" width="40" height="40" as="geometry" />
        </mxCell>
        <mxCell id="TIA-kVSFj0vNfFAjIC5h-9" value="8" style="ellipse;whiteSpace=wrap;html=1;aspect=fixed;" vertex="1" parent="TIA-kVSFj0vNfFAjIC5h-1">
          <mxGeometry x="220.9056926535307" y="397.8087581473094" width="40" height="40" as="geometry" />
        </mxCell>
        <mxCell id="TIA-kVSFj0vNfFAjIC5h-10" value="9" style="ellipse;whiteSpace=wrap;html=1;aspect=fixed;" vertex="1" parent="TIA-kVSFj0vNfFAjIC5h-1">
          <mxGeometry x="179.09430734646932" y="397.8087581473094" width="40" height="40" as="geometry" />
        </mxCell>
        <mxCell id="TIA-kVSFj0vNfFAjIC5h-11" value="10" style="ellipse;whiteSpace=wrap;html=1;aspect=fixed;" vertex="1" parent="TIA-kVSFj0vNfFAjIC5h-1">
          <mxGeometry x="138.19660112501055" y="389.1156823326854" width="40" height="40" as="geometry" />
        </mxCell>
        <mxCell id="TIA-kVSFj0vNfFAjIC5h-12" value="11" style="ellipse;whiteSpace=wrap;html=1;aspect=fixed;" vertex="1" parent="TIA-kVSFj0vNfFAjIC5h-1">
          <mxGeometry x="100.00000000000006" y="372.1094598305424" width="40" height="40" as="geometry" />
        </mxCell>
        <mxCell id="TIA-kVSFj0vNfFAjIC5h-13" value="12" style="ellipse;whiteSpace=wrap;html=1;aspect=fixed;" vertex="1" parent="TIA-kVSFj0vNfFAjIC5h-1">
          <mxGeometry x="66.17387872822843" y="347.53334416913356" width="40" height="40" as="geometry" />
        </mxCell>
        <mxCell id="TIA-kVSFj0vNfFAjIC5h-14" value="13" style="ellipse;whiteSpace=wrap;html=1;aspect=fixed;" vertex="1" parent="TIA-kVSFj0vNfFAjIC5h-1">
          <mxGeometry x="38.196601125010545" y="316.4614295321493" width="40" height="40" as="geometry" />
        </mxCell>
        <mxCell id="TIA-kVSFj0vNfFAjIC5h-15" value="14" style="ellipse;whiteSpace=wrap;html=1;aspect=fixed;" vertex="1" parent="TIA-kVSFj0vNfFAjIC5h-1">
          <mxGeometry x="17.29090847147981" y="280.2517076888147" width="40" height="40" as="geometry" />
        </mxCell>
        <mxCell id="TIA-kVSFj0vNfFAjIC5h-16" value="15" style="ellipse;whiteSpace=wrap;html=1;aspect=fixed;" vertex="1" parent="TIA-kVSFj0vNfFAjIC5h-1">
          <mxGeometry x="4.370479853238862" y="240.48671723720653" width="40" height="40" as="geometry" />
        </mxCell>
        <mxCell id="TIA-kVSFj0vNfFAjIC5h-17" value="16" style="ellipse;whiteSpace=wrap;html=1;aspect=fixed;" vertex="1" parent="TIA-kVSFj0vNfFAjIC5h-1">
          <mxGeometry y="198.90437907365478" width="40" height="40" as="geometry" />
        </mxCell>
        <mxCell id="TIA-kVSFj0vNfFAjIC5h-18" value="17" style="ellipse;whiteSpace=wrap;html=1;aspect=fixed;" vertex="1" parent="TIA-kVSFj0vNfFAjIC5h-1">
          <mxGeometry x="4.370479853238862" y="157.32204091010286" width="40" height="40" as="geometry" />
        </mxCell>
        <mxCell id="TIA-kVSFj0vNfFAjIC5h-19" value="18" style="ellipse;whiteSpace=wrap;html=1;aspect=fixed;" vertex="1" parent="TIA-kVSFj0vNfFAjIC5h-1">
          <mxGeometry x="17.29090847147984" y="117.55705045849461" width="40" height="40" as="geometry" />
        </mxCell>
        <mxCell id="TIA-kVSFj0vNfFAjIC5h-20" value="19" style="ellipse;whiteSpace=wrap;html=1;aspect=fixed;" vertex="1" parent="TIA-kVSFj0vNfFAjIC5h-1">
          <mxGeometry x="38.19660112501049" y="81.34732861516008" width="40" height="40" as="geometry" />
        </mxCell>
        <mxCell id="TIA-kVSFj0vNfFAjIC5h-21" value="20" style="ellipse;whiteSpace=wrap;html=1;aspect=fixed;" vertex="1" parent="TIA-kVSFj0vNfFAjIC5h-1">
          <mxGeometry x="66.17387872822832" y="50.27541397817586" width="40" height="40" as="geometry" />
        </mxCell>
        <mxCell id="TIA-kVSFj0vNfFAjIC5h-22" value="21" style="ellipse;whiteSpace=wrap;html=1;aspect=fixed;" vertex="1" parent="TIA-kVSFj0vNfFAjIC5h-1">
          <mxGeometry x="99.99999999999991" y="25.699298316767" width="40" height="40" as="geometry" />
        </mxCell>
        <mxCell id="TIA-kVSFj0vNfFAjIC5h-23" value="22" style="ellipse;whiteSpace=wrap;html=1;aspect=fixed;" vertex="1" parent="TIA-kVSFj0vNfFAjIC5h-1">
          <mxGeometry x="138.1966011250105" y="8.693075814623967" width="40" height="40" as="geometry" />
        </mxCell>
        <mxCell id="TIA-kVSFj0vNfFAjIC5h-24" value="23" style="ellipse;whiteSpace=wrap;html=1;aspect=fixed;" vertex="1" parent="TIA-kVSFj0vNfFAjIC5h-1">
          <mxGeometry x="179.09430734646915" width="40" height="40" as="geometry" />
        </mxCell>
        <mxCell id="TIA-kVSFj0vNfFAjIC5h-25" value="24" style="ellipse;whiteSpace=wrap;html=1;aspect=fixed;" vertex="1" parent="TIA-kVSFj0vNfFAjIC5h-1">
          <mxGeometry x="220.9056926535306" width="40" height="40" as="geometry" />
        </mxCell>
        <mxCell id="TIA-kVSFj0vNfFAjIC5h-26" value="25" style="ellipse;whiteSpace=wrap;html=1;aspect=fixed;" vertex="1" parent="TIA-kVSFj0vNfFAjIC5h-1">
          <mxGeometry x="261.80339887498945" y="8.693075814623938" width="40" height="40" as="geometry" />
        </mxCell>
        <mxCell id="TIA-kVSFj0vNfFAjIC5h-27" value="26" style="ellipse;whiteSpace=wrap;html=1;aspect=fixed;" vertex="1" parent="TIA-kVSFj0vNfFAjIC5h-1">
          <mxGeometry x="300" y="25.699298316766942" width="40" height="40" as="geometry" />
        </mxCell>
        <mxCell id="TIA-kVSFj0vNfFAjIC5h-28" value="27" style="ellipse;whiteSpace=wrap;html=1;aspect=fixed;" vertex="1" parent="TIA-kVSFj0vNfFAjIC5h-1">
          <mxGeometry x="333.8261212717717" y="50.27541397817586" width="40" height="40" as="geometry" />
        </mxCell>
        <mxCell id="TIA-kVSFj0vNfFAjIC5h-29" value="28" style="ellipse;whiteSpace=wrap;html=1;aspect=fixed;" vertex="1" parent="TIA-kVSFj0vNfFAjIC5h-1">
          <mxGeometry x="361.80339887498945" y="81.34732861516" width="40" height="40" as="geometry" />
        </mxCell>
        <mxCell id="TIA-kVSFj0vNfFAjIC5h-30" value="29" style="ellipse;whiteSpace=wrap;html=1;aspect=fixed;" vertex="1" parent="TIA-kVSFj0vNfFAjIC5h-1">
          <mxGeometry x="382.70909152852016" y="117.55705045849464" width="40" height="40" as="geometry" />
        </mxCell>
        <mxCell id="TIA-kVSFj0vNfFAjIC5h-31" value="30" style="ellipse;whiteSpace=wrap;html=1;aspect=fixed;" vertex="1" parent="TIA-kVSFj0vNfFAjIC5h-1">
          <mxGeometry x="395.62952014676114" y="157.32204091010286" width="40" height="40" as="geometry" />
        </mxCell>
        <mxCell id="TIA-kVSFj0vNfFAjIC5h-32" value="" style="endArrow=classic;html=1;rounded=0;strokeWidth=0;" edge="1" parent="1">
          <mxGeometry width="50" height="50" relative="1" as="geometry">
            <mxPoint x="470" y="270" as="sourcePoint" />
            <mxPoint x="74.37047985323886" y="228.4176618364482" as="targetPoint" />
          </mxGeometry>
        </mxCell>
        <mxCell id="TIA-kVSFj0vNfFAjIC5h-33" value="" style="endArrow=classic;html=1;rounded=0;strokeWidth=0;" edge="1" parent="1">
          <mxGeometry width="50" height="50" relative="1" as="geometry">
            <mxPoint x="470" y="270" as="sourcePoint" />
            <mxPoint x="136.17387872822843" y="418.62896509547886" as="targetPoint" />
          </mxGeometry>
        </mxCell>
        <mxCell id="TIA-kVSFj0vNfFAjIC5h-34" value="" style="endArrow=classic;html=1;rounded=0;strokeWidth=0;" edge="1" parent="1">
          <mxGeometry width="50" height="50" relative="1" as="geometry">
            <mxPoint x="465.62952014676114" y="311.58233816355187" as="sourcePoint" />
            <mxPoint x="87.29090847147984" y="188.65267138483995" as="targetPoint" />
          </mxGeometry>
        </mxCell>
        <mxCell id="TIA-kVSFj0vNfFAjIC5h-35" value="" style="endArrow=classic;html=1;rounded=0;strokeWidth=0;" edge="1" parent="1">
          <mxGeometry width="50" height="50" relative="1" as="geometry">
            <mxPoint x="452.70909152852016" y="351.34732861516" as="sourcePoint" />
            <mxPoint x="136.17387872822832" y="121.3710349045212" as="targetPoint" />
          </mxGeometry>
        </mxCell>
        <mxCell id="TIA-kVSFj0vNfFAjIC5h-36" value="" style="endArrow=classic;html=1;rounded=0;strokeWidth=0;" edge="1" parent="1">
          <mxGeometry width="50" height="50" relative="1" as="geometry">
            <mxPoint x="452.70909152852016" y="351.34732861516" as="sourcePoint" />
            <mxPoint x="70" y="270.0000000000001" as="targetPoint" />
          </mxGeometry>
        </mxCell>
        <mxCell id="TIA-kVSFj0vNfFAjIC5h-37" value="" style="endArrow=classic;html=1;rounded=0;strokeWidth=0;" edge="1" parent="1">
          <mxGeometry width="50" height="50" relative="1" as="geometry">
            <mxPoint x="452.70909152852016" y="351.34732861516" as="sourcePoint" />
            <mxPoint x="208.1966011250105" y="79.7886967409693" as="targetPoint" />
          </mxGeometry>
        </mxCell>
        <mxCell id="TIA-kVSFj0vNfFAjIC5h-38" value="" style="endArrow=classic;html=1;rounded=0;strokeWidth=0;" edge="1" parent="1">
          <mxGeometry width="50" height="50" relative="1" as="geometry">
            <mxPoint x="452.70909152852016" y="351.34732861516" as="sourcePoint" />
            <mxPoint x="87.29090847147981" y="351.34732861516" as="targetPoint" />
          </mxGeometry>
        </mxCell>
        <mxCell id="TIA-kVSFj0vNfFAjIC5h-39" value="" style="endArrow=classic;html=1;rounded=0;strokeWidth=0;" edge="1" parent="1">
          <mxGeometry width="50" height="50" relative="1" as="geometry">
            <mxPoint x="431.8033988749895" y="387.55705045849464" as="sourcePoint" />
            <mxPoint x="108.19660112501049" y="152.4429495415054" as="targetPoint" />
          </mxGeometry>
        </mxCell>
        <mxCell id="TIA-kVSFj0vNfFAjIC5h-40" value="" style="endArrow=classic;html=1;rounded=0;strokeWidth=0;" edge="1" parent="1">
          <mxGeometry width="50" height="50" relative="1" as="geometry">
            <mxPoint x="431.8033988749895" y="387.55705045849464" as="sourcePoint" />
            <mxPoint x="208.1966011250105" y="79.7886967409693" as="targetPoint" />
          </mxGeometry>
        </mxCell>
        <mxCell id="TIA-kVSFj0vNfFAjIC5h-41" value="" style="endArrow=classic;html=1;rounded=0;strokeWidth=0;" edge="1" parent="1">
          <mxGeometry width="50" height="50" relative="1" as="geometry">
            <mxPoint x="403.8261212717716" y="418.62896509547886" as="sourcePoint" />
            <mxPoint x="169.99999999999991" y="96.79491924311233" as="targetPoint" />
          </mxGeometry>
        </mxCell>
        <mxCell id="TIA-kVSFj0vNfFAjIC5h-42" value="" style="endArrow=classic;html=1;rounded=0;strokeWidth=0;" edge="1" parent="1">
          <mxGeometry width="50" height="50" relative="1" as="geometry">
            <mxPoint x="403.8261212717716" y="418.62896509547886" as="sourcePoint" />
            <mxPoint x="290.9056926535306" y="71.09562092634533" as="targetPoint" />
          </mxGeometry>
        </mxCell>
        <mxCell id="TIA-kVSFj0vNfFAjIC5h-43" value="" style="endArrow=classic;html=1;rounded=0;strokeWidth=0;" edge="1" parent="1">
          <mxGeometry width="50" height="50" relative="1" as="geometry">
            <mxPoint x="370" y="443.2050807568877" as="sourcePoint" />
            <mxPoint x="290.9056926535306" y="71.09562092634533" as="targetPoint" />
          </mxGeometry>
        </mxCell>
        <mxCell id="TIA-kVSFj0vNfFAjIC5h-44" value="" style="endArrow=classic;html=1;rounded=0;strokeWidth=0;" edge="1" parent="1">
          <mxGeometry width="50" height="50" relative="1" as="geometry">
            <mxPoint x="370" y="443.2050807568877" as="sourcePoint" />
            <mxPoint x="87.29090847147984" y="188.65267138483995" as="targetPoint" />
          </mxGeometry>
        </mxCell>
        <mxCell id="TIA-kVSFj0vNfFAjIC5h-45" value="" style="endArrow=classic;html=1;rounded=0;strokeWidth=0;" edge="1" parent="1">
          <mxGeometry width="50" height="50" relative="1" as="geometry">
            <mxPoint x="370" y="443.2050807568877" as="sourcePoint" />
            <mxPoint x="331.80339887498945" y="79.78869674096927" as="targetPoint" />
          </mxGeometry>
        </mxCell>
        <mxCell id="TIA-kVSFj0vNfFAjIC5h-46" value="" style="endArrow=classic;html=1;rounded=0;strokeWidth=0;" edge="1" parent="1">
          <mxGeometry width="50" height="50" relative="1" as="geometry">
            <mxPoint x="370" y="443.2050807568877" as="sourcePoint" />
            <mxPoint x="74.37047985323886" y="228.4176618364482" as="targetPoint" />
          </mxGeometry>
        </mxCell>
        <mxCell id="TIA-kVSFj0vNfFAjIC5h-47" value="" style="endArrow=classic;html=1;rounded=0;strokeWidth=0;" edge="1" parent="1">
          <mxGeometry width="50" height="50" relative="1" as="geometry">
            <mxPoint x="331.8033988749895" y="460.21130325903073" as="sourcePoint" />
            <mxPoint x="169.99999999999991" y="96.79491924311233" as="targetPoint" />
          </mxGeometry>
        </mxCell>
        <mxCell id="TIA-kVSFj0vNfFAjIC5h-48" value="" style="endArrow=classic;html=1;rounded=0;strokeWidth=0;" edge="1" parent="1">
          <mxGeometry width="50" height="50" relative="1" as="geometry">
            <mxPoint x="331.8033988749895" y="460.21130325903073" as="sourcePoint" />
            <mxPoint x="290.9056926535306" y="71.09562092634533" as="targetPoint" />
          </mxGeometry>
        </mxCell>
        <mxCell id="TIA-kVSFj0vNfFAjIC5h-49" value="" style="endArrow=classic;html=1;rounded=0;strokeWidth=0;" edge="1" parent="1">
          <mxGeometry width="50" height="50" relative="1" as="geometry">
            <mxPoint x="331.8033988749895" y="460.21130325903073" as="sourcePoint" />
            <mxPoint x="136.17387872822832" y="121.3710349045212" as="targetPoint" />
          </mxGeometry>
        </mxCell>
        <mxCell id="TIA-kVSFj0vNfFAjIC5h-50" value="" style="endArrow=classic;html=1;rounded=0;strokeWidth=0;" edge="1" parent="1">
          <mxGeometry width="50" height="50" relative="1" as="geometry">
            <mxPoint x="331.8033988749895" y="460.21130325903073" as="sourcePoint" />
            <mxPoint x="108.19660112501049" y="152.4429495415054" as="targetPoint" />
          </mxGeometry>
        </mxCell>
        <mxCell id="TIA-kVSFj0vNfFAjIC5h-51" value="" style="endArrow=classic;html=1;rounded=0;strokeWidth=0;" edge="1" parent="1">
          <mxGeometry width="50" height="50" relative="1" as="geometry">
            <mxPoint x="331.8033988749895" y="460.21130325903073" as="sourcePoint" />
            <mxPoint x="87.29090847147984" y="188.65267138483995" as="targetPoint" />
          </mxGeometry>
        </mxCell>
        <mxCell id="TIA-kVSFj0vNfFAjIC5h-52" value="" style="endArrow=classic;html=1;rounded=0;strokeWidth=0;" edge="1" parent="1">
          <mxGeometry width="50" height="50" relative="1" as="geometry">
            <mxPoint x="290.9056926535307" y="468.9043790736547" as="sourcePoint" />
            <mxPoint x="249.09430734646915" y="71.09562092634533" as="targetPoint" />
          </mxGeometry>
        </mxCell>
        <mxCell id="TIA-kVSFj0vNfFAjIC5h-53" value="" style="endArrow=classic;html=1;rounded=0;strokeWidth=3;" edge="1" parent="1">
          <mxGeometry width="50" height="50" relative="1" as="geometry">
            <mxPoint x="290.9056926535307" y="468.9043790736547" as="sourcePoint" />
            <mxPoint x="290.9056926535306" y="71.09562092634533" as="targetPoint" />
          </mxGeometry>
        </mxCell>
        <mxCell id="TIA-kVSFj0vNfFAjIC5h-54" value="" style="endArrow=classic;html=1;rounded=0;strokeWidth=0;" edge="1" parent="1">
          <mxGeometry width="50" height="50" relative="1" as="geometry">
            <mxPoint x="290.9056926535307" y="468.9043790736547" as="sourcePoint" />
            <mxPoint x="331.80339887498945" y="79.78869674096927" as="targetPoint" />
          </mxGeometry>
        </mxCell>
        <mxCell id="TIA-kVSFj0vNfFAjIC5h-55" value="" style="endArrow=classic;html=1;rounded=0;strokeWidth=0;" edge="1" parent="1">
          <mxGeometry width="50" height="50" relative="1" as="geometry">
            <mxPoint x="290.9056926535307" y="468.9043790736547" as="sourcePoint" />
            <mxPoint x="136.17387872822832" y="121.3710349045212" as="targetPoint" />
          </mxGeometry>
        </mxCell>
        <mxCell id="TIA-kVSFj0vNfFAjIC5h-56" value="" style="endArrow=classic;html=1;rounded=0;strokeWidth=0;" edge="1" parent="1">
          <mxGeometry width="50" height="50" relative="1" as="geometry">
            <mxPoint x="290.9056926535307" y="468.9043790736547" as="sourcePoint" />
            <mxPoint x="403.8261212717717" y="121.3710349045212" as="targetPoint" />
          </mxGeometry>
        </mxCell>
        <mxCell id="TIA-kVSFj0vNfFAjIC5h-57" value="" style="endArrow=classic;html=1;rounded=0;strokeWidth=0;" edge="1" parent="1">
          <mxGeometry width="50" height="50" relative="1" as="geometry">
            <mxPoint x="249.09430734646932" y="468.9043790736547" as="sourcePoint" />
            <mxPoint x="331.80339887498945" y="79.78869674096927" as="targetPoint" />
          </mxGeometry>
        </mxCell>
        <mxCell id="TIA-kVSFj0vNfFAjIC5h-58" value="" style="endArrow=classic;html=1;rounded=0;strokeWidth=0;" edge="1" parent="1">
          <mxGeometry width="50" height="50" relative="1" as="geometry">
            <mxPoint x="249.09430734646932" y="468.9043790736547" as="sourcePoint" />
            <mxPoint x="136.17387872822832" y="121.3710349045212" as="targetPoint" />
          </mxGeometry>
        </mxCell>
        <mxCell id="TIA-kVSFj0vNfFAjIC5h-59" value="" style="endArrow=classic;html=1;rounded=0;strokeWidth=0;" edge="1" parent="1">
          <mxGeometry width="50" height="50" relative="1" as="geometry">
            <mxPoint x="208.19660112501055" y="460.21130325903073" as="sourcePoint" />
            <mxPoint x="208.1966011250105" y="79.7886967409693" as="targetPoint" />
          </mxGeometry>
        </mxCell>
        <mxCell id="TIA-kVSFj0vNfFAjIC5h-60" value="" style="endArrow=classic;html=1;rounded=0;strokeWidth=0;" edge="1" parent="1">
          <mxGeometry width="50" height="50" relative="1" as="geometry">
            <mxPoint x="208.19660112501055" y="460.21130325903073" as="sourcePoint" />
            <mxPoint x="452.70909152852016" y="188.65267138483998" as="targetPoint" />
          </mxGeometry>
        </mxCell>
        <mxCell id="TIA-kVSFj0vNfFAjIC5h-61" value="" style="endArrow=classic;html=1;rounded=0;strokeWidth=0;" edge="1" parent="1">
          <mxGeometry width="50" height="50" relative="1" as="geometry">
            <mxPoint x="170.00000000000006" y="443.20508075688775" as="sourcePoint" />
            <mxPoint x="370" y="96.79491924311228" as="targetPoint" />
          </mxGeometry>
        </mxCell>
        <mxCell id="TIA-kVSFj0vNfFAjIC5h-62" value="" style="endArrow=classic;html=1;rounded=0;strokeWidth=0;" edge="1" parent="1">
          <mxGeometry width="50" height="50" relative="1" as="geometry">
            <mxPoint x="170.00000000000006" y="443.20508075688775" as="sourcePoint" />
            <mxPoint x="331.80339887498945" y="79.78869674096927" as="targetPoint" />
          </mxGeometry>
        </mxCell>
        <mxCell id="TIA-kVSFj0vNfFAjIC5h-63" value="" style="endArrow=classic;html=1;rounded=0;strokeWidth=0;" edge="1" parent="1">
          <mxGeometry width="50" height="50" relative="1" as="geometry">
            <mxPoint x="170.00000000000006" y="443.20508075688775" as="sourcePoint" />
            <mxPoint x="249.09430734646915" y="71.09562092634533" as="targetPoint" />
          </mxGeometry>
        </mxCell>
        <mxCell id="TIA-kVSFj0vNfFAjIC5h-64" value="" style="endArrow=classic;html=1;rounded=0;strokeWidth=0;" edge="1" parent="1">
          <mxGeometry width="50" height="50" relative="1" as="geometry">
            <mxPoint x="136.17387872822843" y="418.62896509547886" as="sourcePoint" />
            <mxPoint x="403.8261212717717" y="121.3710349045212" as="targetPoint" />
          </mxGeometry>
        </mxCell>
        <mxCell id="TIA-kVSFj0vNfFAjIC5h-65" value="" style="endArrow=classic;html=1;rounded=0;strokeWidth=0;" edge="1" parent="1">
          <mxGeometry width="50" height="50" relative="1" as="geometry">
            <mxPoint x="136.17387872822843" y="418.62896509547886" as="sourcePoint" />
            <mxPoint x="452.70909152852016" y="188.65267138483998" as="targetPoint" />
          </mxGeometry>
        </mxCell>
        <mxCell id="TIA-kVSFj0vNfFAjIC5h-66" value="" style="endArrow=classic;html=1;rounded=0;strokeWidth=0;" edge="1" parent="1">
          <mxGeometry width="50" height="50" relative="1" as="geometry">
            <mxPoint x="108.19660112501055" y="387.55705045849464" as="sourcePoint" />
            <mxPoint x="465.62952014676114" y="311.58233816355187" as="targetPoint" />
          </mxGeometry>
        </mxCell>
        <mxCell id="TIA-kVSFj0vNfFAjIC5h-67" value="" style="endArrow=classic;html=1;rounded=0;strokeWidth=0;" edge="1" parent="1">
          <mxGeometry width="50" height="50" relative="1" as="geometry">
            <mxPoint x="108.19660112501055" y="387.55705045849464" as="sourcePoint" />
            <mxPoint x="290.9056926535306" y="71.09562092634533" as="targetPoint" />
          </mxGeometry>
        </mxCell>
        <mxCell id="TIA-kVSFj0vNfFAjIC5h-68" value="" style="endArrow=classic;html=1;rounded=0;strokeWidth=0;" edge="1" parent="1">
          <mxGeometry width="50" height="50" relative="1" as="geometry">
            <mxPoint x="87.29090847147981" y="351.34732861516" as="sourcePoint" />
            <mxPoint x="452.70909152852016" y="188.65267138483998" as="targetPoint" />
          </mxGeometry>
        </mxCell>
        <mxCell id="TIA-kVSFj0vNfFAjIC5h-69" value="" style="endArrow=classic;html=1;rounded=0;strokeWidth=0;" edge="1" parent="1">
          <mxGeometry width="50" height="50" relative="1" as="geometry">
            <mxPoint x="74.37047985323886" y="311.58233816355187" as="sourcePoint" />
            <mxPoint x="470" y="270" as="targetPoint" />
          </mxGeometry>
        </mxCell>
        <mxCell id="TIA-kVSFj0vNfFAjIC5h-70" value="" style="endArrow=classic;html=1;rounded=0;strokeWidth=0;" edge="1" parent="1">
          <mxGeometry width="50" height="50" relative="1" as="geometry">
            <mxPoint x="74.37047985323886" y="311.58233816355187" as="sourcePoint" />
            <mxPoint x="465.62952014676114" y="311.58233816355187" as="targetPoint" />
          </mxGeometry>
        </mxCell>
        <mxCell id="TIA-kVSFj0vNfFAjIC5h-71" value="" style="endArrow=classic;html=1;rounded=0;strokeWidth=0;" edge="1" parent="1">
          <mxGeometry width="50" height="50" relative="1" as="geometry">
            <mxPoint x="70" y="270.0000000000001" as="sourcePoint" />
            <mxPoint x="465.62952014676114" y="311.58233816355187" as="targetPoint" />
          </mxGeometry>
        </mxCell>
        <mxCell id="TIA-kVSFj0vNfFAjIC5h-72" value="" style="endArrow=classic;html=1;rounded=0;strokeWidth=0;" edge="1" parent="1">
          <mxGeometry width="50" height="50" relative="1" as="geometry">
            <mxPoint x="70" y="270.0000000000001" as="sourcePoint" />
            <mxPoint x="452.70909152852016" y="351.34732861516" as="targetPoint" />
          </mxGeometry>
        </mxCell>
        <mxCell id="TIA-kVSFj0vNfFAjIC5h-73" value="" style="endArrow=classic;html=1;rounded=0;strokeWidth=1;" edge="1" parent="1">
          <mxGeometry width="50" height="50" relative="1" as="geometry">
            <mxPoint x="74.37047985323886" y="228.4176618364482" as="sourcePoint" />
            <mxPoint x="470" y="270" as="targetPoint" />
          </mxGeometry>
        </mxCell>
        <mxCell id="TIA-kVSFj0vNfFAjIC5h-74" value="" style="endArrow=classic;html=1;rounded=0;strokeWidth=0;" edge="1" parent="1">
          <mxGeometry width="50" height="50" relative="1" as="geometry">
            <mxPoint x="74.37047985323886" y="228.4176618364482" as="sourcePoint" />
            <mxPoint x="452.70909152852016" y="351.34732861516" as="targetPoint" />
          </mxGeometry>
        </mxCell>
        <mxCell id="TIA-kVSFj0vNfFAjIC5h-75" value="" style="endArrow=classic;html=1;rounded=0;strokeWidth=0;" edge="1" parent="1">
          <mxGeometry width="50" height="50" relative="1" as="geometry">
            <mxPoint x="74.37047985323886" y="228.4176618364482" as="sourcePoint" />
            <mxPoint x="431.80339887498945" y="152.44294954150533" as="targetPoint" />
          </mxGeometry>
        </mxCell>
        <mxCell id="TIA-kVSFj0vNfFAjIC5h-76" value="" style="endArrow=classic;html=1;rounded=0;strokeWidth=0;" edge="1" parent="1">
          <mxGeometry width="50" height="50" relative="1" as="geometry">
            <mxPoint x="74.37047985323886" y="228.4176618364482" as="sourcePoint" />
            <mxPoint x="370" y="443.2050807568877" as="targetPoint" />
          </mxGeometry>
        </mxCell>
        <mxCell id="TIA-kVSFj0vNfFAjIC5h-77" value="" style="endArrow=classic;html=1;rounded=0;strokeWidth=4;" edge="1" parent="1">
          <mxGeometry width="50" height="50" relative="1" as="geometry">
            <mxPoint x="87.29090847147984" y="188.65267138483995" as="sourcePoint" />
            <mxPoint x="403.8261212717716" y="418.62896509547886" as="targetPoint" />
          </mxGeometry>
        </mxCell>
        <mxCell id="TIA-kVSFj0vNfFAjIC5h-78" value="" style="endArrow=classic;html=1;rounded=0;strokeWidth=2;" edge="1" parent="1">
          <mxGeometry width="50" height="50" relative="1" as="geometry">
            <mxPoint x="87.29090847147984" y="188.65267138483995" as="sourcePoint" />
            <mxPoint x="331.8033988749895" y="460.21130325903073" as="targetPoint" />
          </mxGeometry>
        </mxCell>
        <mxCell id="TIA-kVSFj0vNfFAjIC5h-79" value="" style="endArrow=classic;html=1;rounded=0;strokeWidth=0;" edge="1" parent="1">
          <mxGeometry width="50" height="50" relative="1" as="geometry">
            <mxPoint x="87.29090847147984" y="188.65267138483995" as="sourcePoint" />
            <mxPoint x="452.70909152852016" y="188.65267138483998" as="targetPoint" />
          </mxGeometry>
        </mxCell>
        <mxCell id="TIA-kVSFj0vNfFAjIC5h-80" value="" style="endArrow=classic;html=1;rounded=0;strokeWidth=0;" edge="1" parent="1">
          <mxGeometry width="50" height="50" relative="1" as="geometry">
            <mxPoint x="108.19660112501049" y="152.4429495415054" as="sourcePoint" />
            <mxPoint x="403.8261212717716" y="418.62896509547886" as="targetPoint" />
          </mxGeometry>
        </mxCell>
        <mxCell id="TIA-kVSFj0vNfFAjIC5h-81" value="" style="endArrow=classic;html=1;rounded=0;strokeWidth=0;" edge="1" parent="1">
          <mxGeometry width="50" height="50" relative="1" as="geometry">
            <mxPoint x="108.19660112501049" y="152.4429495415054" as="sourcePoint" />
            <mxPoint x="452.70909152852016" y="351.34732861516" as="targetPoint" />
          </mxGeometry>
        </mxCell>
        <mxCell id="TIA-kVSFj0vNfFAjIC5h-82" value="" style="endArrow=classic;html=1;rounded=0;strokeWidth=0;" edge="1" parent="1">
          <mxGeometry width="50" height="50" relative="1" as="geometry">
            <mxPoint x="108.19660112501049" y="152.4429495415054" as="sourcePoint" />
            <mxPoint x="331.8033988749895" y="460.21130325903073" as="targetPoint" />
          </mxGeometry>
        </mxCell>
        <mxCell id="TIA-kVSFj0vNfFAjIC5h-83" value="" style="endArrow=classic;html=1;rounded=0;strokeWidth=0;" edge="1" parent="1">
          <mxGeometry width="50" height="50" relative="1" as="geometry">
            <mxPoint x="108.19660112501049" y="152.4429495415054" as="sourcePoint" />
            <mxPoint x="465.62952014676114" y="228.4176618364482" as="targetPoint" />
          </mxGeometry>
        </mxCell>
        <mxCell id="TIA-kVSFj0vNfFAjIC5h-84" value="" style="endArrow=classic;html=1;rounded=0;strokeWidth=0;" edge="1" parent="1">
          <mxGeometry width="50" height="50" relative="1" as="geometry">
            <mxPoint x="108.19660112501049" y="152.4429495415054" as="sourcePoint" />
            <mxPoint x="290.9056926535307" y="468.9043790736547" as="targetPoint" />
          </mxGeometry>
        </mxCell>
        <mxCell id="TIA-kVSFj0vNfFAjIC5h-85" value="" style="endArrow=classic;html=1;rounded=0;strokeWidth=0;" edge="1" parent="1">
          <mxGeometry width="50" height="50" relative="1" as="geometry">
            <mxPoint x="136.17387872822832" y="121.3710349045212" as="sourcePoint" />
            <mxPoint x="431.8033988749895" y="387.55705045849464" as="targetPoint" />
          </mxGeometry>
        </mxCell>
        <mxCell id="TIA-kVSFj0vNfFAjIC5h-86" value="" style="endArrow=classic;html=1;rounded=0;strokeWidth=0;" edge="1" parent="1">
          <mxGeometry width="50" height="50" relative="1" as="geometry">
            <mxPoint x="136.17387872822832" y="121.3710349045212" as="sourcePoint" />
            <mxPoint x="290.9056926535307" y="468.9043790736547" as="targetPoint" />
          </mxGeometry>
        </mxCell>
        <mxCell id="TIA-kVSFj0vNfFAjIC5h-87" value="" style="endArrow=classic;html=1;rounded=0;strokeWidth=0;" edge="1" parent="1">
          <mxGeometry width="50" height="50" relative="1" as="geometry">
            <mxPoint x="136.17387872822832" y="121.3710349045212" as="sourcePoint" />
            <mxPoint x="465.62952014676114" y="311.58233816355187" as="targetPoint" />
          </mxGeometry>
        </mxCell>
        <mxCell id="TIA-kVSFj0vNfFAjIC5h-88" value="" style="endArrow=classic;html=1;rounded=0;strokeWidth=0;" edge="1" parent="1">
          <mxGeometry width="50" height="50" relative="1" as="geometry">
            <mxPoint x="169.99999999999991" y="96.79491924311233" as="sourcePoint" />
            <mxPoint x="403.8261212717716" y="418.62896509547886" as="targetPoint" />
          </mxGeometry>
        </mxCell>
        <mxCell id="TIA-kVSFj0vNfFAjIC5h-89" value="" style="endArrow=classic;html=1;rounded=0;strokeWidth=0;" edge="1" parent="1">
          <mxGeometry width="50" height="50" relative="1" as="geometry">
            <mxPoint x="169.99999999999991" y="96.79491924311233" as="sourcePoint" />
            <mxPoint x="249.09430734646932" y="468.9043790736547" as="targetPoint" />
          </mxGeometry>
        </mxCell>
        <mxCell id="TIA-kVSFj0vNfFAjIC5h-90" value="" style="endArrow=classic;html=1;rounded=0;strokeWidth=0;" edge="1" parent="1">
          <mxGeometry width="50" height="50" relative="1" as="geometry">
            <mxPoint x="169.99999999999991" y="96.79491924311233" as="sourcePoint" />
            <mxPoint x="452.70909152852016" y="351.34732861516" as="targetPoint" />
          </mxGeometry>
        </mxCell>
        <mxCell id="TIA-kVSFj0vNfFAjIC5h-91" value="" style="endArrow=classic;html=1;rounded=0;strokeWidth=0;" edge="1" parent="1">
          <mxGeometry width="50" height="50" relative="1" as="geometry">
            <mxPoint x="208.1966011250105" y="79.7886967409693" as="sourcePoint" />
            <mxPoint x="290.9056926535307" y="468.9043790736547" as="targetPoint" />
          </mxGeometry>
        </mxCell>
        <mxCell id="TIA-kVSFj0vNfFAjIC5h-92" value="" style="endArrow=classic;html=1;rounded=0;strokeWidth=0;" edge="1" parent="1">
          <mxGeometry width="50" height="50" relative="1" as="geometry">
            <mxPoint x="208.1966011250105" y="79.7886967409693" as="sourcePoint" />
            <mxPoint x="370" y="443.2050807568877" as="targetPoint" />
          </mxGeometry>
        </mxCell>
        <mxCell id="TIA-kVSFj0vNfFAjIC5h-93" value="" style="endArrow=classic;html=1;rounded=0;strokeWidth=0;" edge="1" parent="1">
          <mxGeometry width="50" height="50" relative="1" as="geometry">
            <mxPoint x="208.1966011250105" y="79.7886967409693" as="sourcePoint" />
            <mxPoint x="249.09430734646932" y="468.9043790736547" as="targetPoint" />
          </mxGeometry>
        </mxCell>
        <mxCell id="TIA-kVSFj0vNfFAjIC5h-94" value="" style="endArrow=classic;html=1;rounded=0;strokeWidth=0;" edge="1" parent="1">
          <mxGeometry width="50" height="50" relative="1" as="geometry">
            <mxPoint x="249.09430734646915" y="71.09562092634533" as="sourcePoint" />
            <mxPoint x="208.19660112501055" y="460.21130325903073" as="targetPoint" />
          </mxGeometry>
        </mxCell>
        <mxCell id="TIA-kVSFj0vNfFAjIC5h-95" value="" style="endArrow=classic;html=1;rounded=0;strokeWidth=0;" edge="1" parent="1">
          <mxGeometry width="50" height="50" relative="1" as="geometry">
            <mxPoint x="249.09430734646915" y="71.09562092634533" as="sourcePoint" />
            <mxPoint x="370" y="443.2050807568877" as="targetPoint" />
          </mxGeometry>
        </mxCell>
        <mxCell id="TIA-kVSFj0vNfFAjIC5h-96" value="" style="endArrow=classic;html=1;rounded=0;strokeWidth=3;" edge="1" parent="1">
          <mxGeometry width="50" height="50" relative="1" as="geometry">
            <mxPoint x="249.09430734646915" y="71.09562092634533" as="sourcePoint" />
            <mxPoint x="170.00000000000006" y="443.20508075688775" as="targetPoint" />
          </mxGeometry>
        </mxCell>
        <mxCell id="TIA-kVSFj0vNfFAjIC5h-97" value="" style="endArrow=classic;html=1;rounded=0;strokeWidth=0;" edge="1" parent="1">
          <mxGeometry width="50" height="50" relative="1" as="geometry">
            <mxPoint x="331.80339887498945" y="79.78869674096927" as="sourcePoint" />
            <mxPoint x="108.19660112501055" y="387.55705045849464" as="targetPoint" />
          </mxGeometry>
        </mxCell>
        <mxCell id="TIA-kVSFj0vNfFAjIC5h-98" value="" style="endArrow=classic;html=1;rounded=0;strokeWidth=1;" edge="1" parent="1">
          <mxGeometry width="50" height="50" relative="1" as="geometry">
            <mxPoint x="331.80339887498945" y="79.78869674096927" as="sourcePoint" />
            <mxPoint x="87.29090847147981" y="351.34732861516" as="targetPoint" />
          </mxGeometry>
        </mxCell>
        <mxCell id="TIA-kVSFj0vNfFAjIC5h-99" value="" style="endArrow=classic;html=1;rounded=0;strokeWidth=3;" edge="1" parent="1">
          <mxGeometry width="50" height="50" relative="1" as="geometry">
            <mxPoint x="331.80339887498945" y="79.78869674096927" as="sourcePoint" />
            <mxPoint x="370" y="443.2050807568877" as="targetPoint" />
          </mxGeometry>
        </mxCell>
        <mxCell id="TIA-kVSFj0vNfFAjIC5h-100" value="" style="endArrow=classic;html=1;rounded=0;strokeWidth=0;" edge="1" parent="1">
          <mxGeometry width="50" height="50" relative="1" as="geometry">
            <mxPoint x="370" y="96.79491924311228" as="sourcePoint" />
            <mxPoint x="170.00000000000006" y="443.20508075688775" as="targetPoint" />
          </mxGeometry>
        </mxCell>
        <mxCell id="TIA-kVSFj0vNfFAjIC5h-101" value="" style="endArrow=classic;html=1;rounded=0;strokeWidth=0;" edge="1" parent="1">
          <mxGeometry width="50" height="50" relative="1" as="geometry">
            <mxPoint x="370" y="96.79491924311228" as="sourcePoint" />
            <mxPoint x="208.19660112501055" y="460.21130325903073" as="targetPoint" />
          </mxGeometry>
        </mxCell>
        <mxCell id="TIA-kVSFj0vNfFAjIC5h-102" value="" style="endArrow=classic;html=1;rounded=0;strokeWidth=0;" edge="1" parent="1">
          <mxGeometry width="50" height="50" relative="1" as="geometry">
            <mxPoint x="370" y="96.79491924311228" as="sourcePoint" />
            <mxPoint x="87.29090847147981" y="351.34732861516" as="targetPoint" />
          </mxGeometry>
        </mxCell>
        <mxCell id="TIA-kVSFj0vNfFAjIC5h-103" value="" style="endArrow=classic;html=1;rounded=0;strokeWidth=4;" edge="1" parent="1">
          <mxGeometry width="50" height="50" relative="1" as="geometry">
            <mxPoint x="403.8261212717717" y="121.3710349045212" as="sourcePoint" />
            <mxPoint x="87.29090847147981" y="351.34732861516" as="targetPoint" />
          </mxGeometry>
        </mxCell>
        <mxCell id="TIA-kVSFj0vNfFAjIC5h-104" value="" style="endArrow=classic;html=1;rounded=0;strokeWidth=0;" edge="1" parent="1">
          <mxGeometry width="50" height="50" relative="1" as="geometry">
            <mxPoint x="403.8261212717717" y="121.3710349045212" as="sourcePoint" />
            <mxPoint x="74.37047985323886" y="311.58233816355187" as="targetPoint" />
          </mxGeometry>
        </mxCell>
        <mxCell id="TIA-kVSFj0vNfFAjIC5h-105" value="" style="endArrow=classic;html=1;rounded=0;strokeWidth=0;" edge="1" parent="1">
          <mxGeometry width="50" height="50" relative="1" as="geometry">
            <mxPoint x="431.80339887498945" y="152.44294954150533" as="sourcePoint" />
            <mxPoint x="74.37047985323886" y="311.58233816355187" as="targetPoint" />
          </mxGeometry>
        </mxCell>
        <mxCell id="TIA-kVSFj0vNfFAjIC5h-106" value="" style="endArrow=classic;html=1;rounded=0;strokeWidth=2;" edge="1" parent="1">
          <mxGeometry width="50" height="50" relative="1" as="geometry">
            <mxPoint x="452.70909152852016" y="188.65267138483998" as="sourcePoint" />
            <mxPoint x="74.37047985323886" y="311.58233816355187" as="targetPoint" />
          </mxGeometry>
        </mxCell>
        <mxCell id="TIA-kVSFj0vNfFAjIC5h-107" value="" style="endArrow=classic;html=1;rounded=0;strokeWidth=0;" edge="1" parent="1">
          <mxGeometry width="50" height="50" relative="1" as="geometry">
            <mxPoint x="452.70909152852016" y="188.65267138483998" as="sourcePoint" />
            <mxPoint x="108.19660112501055" y="387.55705045849464" as="targetPoint" />
          </mxGeometry>
        </mxCell>
        <mxCell id="TIA-kVSFj0vNfFAjIC5h-108" value="" style="endArrow=classic;html=1;rounded=0;strokeWidth=0;" edge="1" parent="1">
          <mxGeometry width="50" height="50" relative="1" as="geometry">
            <mxPoint x="452.70909152852016" y="188.65267138483998" as="sourcePoint" />
            <mxPoint x="70" y="270.0000000000001" as="targetPoint" />
          </mxGeometry>
        </mxCell>
        <mxCell id="TIA-kVSFj0vNfFAjIC5h-109" value="" style="endArrow=classic;html=1;rounded=0;strokeWidth=0;" edge="1" parent="1">
          <mxGeometry width="50" height="50" relative="1" as="geometry">
            <mxPoint x="452.70909152852016" y="188.65267138483998" as="sourcePoint" />
            <mxPoint x="170.00000000000006" y="443.20508075688775" as="targetPoint" />
          </mxGeometry>
        </mxCell>
        <mxCell id="TIA-kVSFj0vNfFAjIC5h-110" value="" style="endArrow=classic;html=1;rounded=0;strokeWidth=0;" edge="1" parent="1">
          <mxGeometry width="50" height="50" relative="1" as="geometry">
            <mxPoint x="452.70909152852016" y="188.65267138483998" as="sourcePoint" />
            <mxPoint x="87.29090847147984" y="188.65267138483995" as="targetPoint" />
          </mxGeometry>
        </mxCell>
        <mxCell id="TIA-kVSFj0vNfFAjIC5h-111" value="" style="endArrow=classic;html=1;rounded=0;strokeWidth=2;" edge="1" parent="1">
          <mxGeometry width="50" height="50" relative="1" as="geometry">
            <mxPoint x="465.62952014676114" y="228.4176618364482" as="sourcePoint" />
            <mxPoint x="74.37047985323886" y="311.58233816355187" as="targetPoint" />
          </mxGeometry>
        </mxCell>
        <mxCell id="TIA-kVSFj0vNfFAjIC5h-112" value="" style="endArrow=classic;html=1;rounded=0;strokeWidth=0;" edge="1" parent="1">
          <mxGeometry width="50" height="50" relative="1" as="geometry">
            <mxPoint x="465.62952014676114" y="228.4176618364482" as="sourcePoint" />
            <mxPoint x="108.19660112501049" y="152.4429495415054" as="targetPoint" />
          </mxGeometry>
        </mxCell>
        <mxCell id="TIA-kVSFj0vNfFAjIC5h-113" value="" style="group" vertex="1" connectable="0" parent="1">
          <mxGeometry x="510" y="49.09562092634533" width="440" height="437.8087581473094" as="geometry" />
        </mxCell>
        <mxCell id="TIA-kVSFj0vNfFAjIC5h-114" value="1" style="ellipse;whiteSpace=wrap;html=1;aspect=fixed;" vertex="1" parent="TIA-kVSFj0vNfFAjIC5h-113">
          <mxGeometry x="400" y="198.90437907365467" width="40" height="40" as="geometry" />
        </mxCell>
        <mxCell id="TIA-kVSFj0vNfFAjIC5h-115" value="2" style="ellipse;whiteSpace=wrap;html=1;aspect=fixed;" vertex="1" parent="TIA-kVSFj0vNfFAjIC5h-113">
          <mxGeometry x="395.62952014676114" y="240.48671723720653" width="40" height="40" as="geometry" />
        </mxCell>
        <mxCell id="TIA-kVSFj0vNfFAjIC5h-116" value="3" style="ellipse;whiteSpace=wrap;html=1;aspect=fixed;" vertex="1" parent="TIA-kVSFj0vNfFAjIC5h-113">
          <mxGeometry x="382.70909152852016" y="280.2517076888147" width="40" height="40" as="geometry" />
        </mxCell>
        <mxCell id="TIA-kVSFj0vNfFAjIC5h-117" value="4" style="ellipse;whiteSpace=wrap;html=1;aspect=fixed;" vertex="1" parent="TIA-kVSFj0vNfFAjIC5h-113">
          <mxGeometry x="361.8033988749895" y="316.4614295321493" width="40" height="40" as="geometry" />
        </mxCell>
        <mxCell id="TIA-kVSFj0vNfFAjIC5h-118" value="5" style="ellipse;whiteSpace=wrap;html=1;aspect=fixed;" vertex="1" parent="TIA-kVSFj0vNfFAjIC5h-113">
          <mxGeometry x="333.8261212717716" y="347.53334416913356" width="40" height="40" as="geometry" />
        </mxCell>
        <mxCell id="TIA-kVSFj0vNfFAjIC5h-119" value="6" style="ellipse;whiteSpace=wrap;html=1;aspect=fixed;" vertex="1" parent="TIA-kVSFj0vNfFAjIC5h-113">
          <mxGeometry x="300" y="372.1094598305424" width="40" height="40" as="geometry" />
        </mxCell>
        <mxCell id="TIA-kVSFj0vNfFAjIC5h-120" value="7" style="ellipse;whiteSpace=wrap;html=1;aspect=fixed;" vertex="1" parent="TIA-kVSFj0vNfFAjIC5h-113">
          <mxGeometry x="261.8033988749895" y="389.1156823326854" width="40" height="40" as="geometry" />
        </mxCell>
        <mxCell id="TIA-kVSFj0vNfFAjIC5h-121" value="8" style="ellipse;whiteSpace=wrap;html=1;aspect=fixed;" vertex="1" parent="TIA-kVSFj0vNfFAjIC5h-113">
          <mxGeometry x="220.9056926535307" y="397.8087581473094" width="40" height="40" as="geometry" />
        </mxCell>
        <mxCell id="TIA-kVSFj0vNfFAjIC5h-122" value="9" style="ellipse;whiteSpace=wrap;html=1;aspect=fixed;" vertex="1" parent="TIA-kVSFj0vNfFAjIC5h-113">
          <mxGeometry x="179.09430734646932" y="397.8087581473094" width="40" height="40" as="geometry" />
        </mxCell>
        <mxCell id="TIA-kVSFj0vNfFAjIC5h-123" value="10" style="ellipse;whiteSpace=wrap;html=1;aspect=fixed;" vertex="1" parent="TIA-kVSFj0vNfFAjIC5h-113">
          <mxGeometry x="138.19660112501055" y="389.1156823326854" width="40" height="40" as="geometry" />
        </mxCell>
        <mxCell id="TIA-kVSFj0vNfFAjIC5h-124" value="11" style="ellipse;whiteSpace=wrap;html=1;aspect=fixed;" vertex="1" parent="TIA-kVSFj0vNfFAjIC5h-113">
          <mxGeometry x="100.00000000000006" y="372.1094598305424" width="40" height="40" as="geometry" />
        </mxCell>
        <mxCell id="TIA-kVSFj0vNfFAjIC5h-125" value="12" style="ellipse;whiteSpace=wrap;html=1;aspect=fixed;" vertex="1" parent="TIA-kVSFj0vNfFAjIC5h-113">
          <mxGeometry x="66.17387872822843" y="347.53334416913356" width="40" height="40" as="geometry" />
        </mxCell>
        <mxCell id="TIA-kVSFj0vNfFAjIC5h-126" value="13" style="ellipse;whiteSpace=wrap;html=1;aspect=fixed;" vertex="1" parent="TIA-kVSFj0vNfFAjIC5h-113">
          <mxGeometry x="38.196601125010545" y="316.4614295321493" width="40" height="40" as="geometry" />
        </mxCell>
        <mxCell id="TIA-kVSFj0vNfFAjIC5h-127" value="14" style="ellipse;whiteSpace=wrap;html=1;aspect=fixed;" vertex="1" parent="TIA-kVSFj0vNfFAjIC5h-113">
          <mxGeometry x="17.29090847147981" y="280.2517076888147" width="40" height="40" as="geometry" />
        </mxCell>
        <mxCell id="TIA-kVSFj0vNfFAjIC5h-128" value="15" style="ellipse;whiteSpace=wrap;html=1;aspect=fixed;" vertex="1" parent="TIA-kVSFj0vNfFAjIC5h-113">
          <mxGeometry x="4.370479853238862" y="240.48671723720653" width="40" height="40" as="geometry" />
        </mxCell>
        <mxCell id="TIA-kVSFj0vNfFAjIC5h-129" value="16" style="ellipse;whiteSpace=wrap;html=1;aspect=fixed;" vertex="1" parent="TIA-kVSFj0vNfFAjIC5h-113">
          <mxGeometry y="198.90437907365478" width="40" height="40" as="geometry" />
        </mxCell>
        <mxCell id="TIA-kVSFj0vNfFAjIC5h-130" value="17" style="ellipse;whiteSpace=wrap;html=1;aspect=fixed;" vertex="1" parent="TIA-kVSFj0vNfFAjIC5h-113">
          <mxGeometry x="4.370479853238862" y="157.32204091010286" width="40" height="40" as="geometry" />
        </mxCell>
        <mxCell id="TIA-kVSFj0vNfFAjIC5h-131" value="18" style="ellipse;whiteSpace=wrap;html=1;aspect=fixed;" vertex="1" parent="TIA-kVSFj0vNfFAjIC5h-113">
          <mxGeometry x="17.29090847147984" y="117.55705045849461" width="40" height="40" as="geometry" />
        </mxCell>
        <mxCell id="TIA-kVSFj0vNfFAjIC5h-132" value="19" style="ellipse;whiteSpace=wrap;html=1;aspect=fixed;" vertex="1" parent="TIA-kVSFj0vNfFAjIC5h-113">
          <mxGeometry x="38.19660112501049" y="81.34732861516008" width="40" height="40" as="geometry" />
        </mxCell>
        <mxCell id="TIA-kVSFj0vNfFAjIC5h-133" value="20" style="ellipse;whiteSpace=wrap;html=1;aspect=fixed;" vertex="1" parent="TIA-kVSFj0vNfFAjIC5h-113">
          <mxGeometry x="66.17387872822832" y="50.27541397817586" width="40" height="40" as="geometry" />
        </mxCell>
        <mxCell id="TIA-kVSFj0vNfFAjIC5h-134" value="21" style="ellipse;whiteSpace=wrap;html=1;aspect=fixed;" vertex="1" parent="TIA-kVSFj0vNfFAjIC5h-113">
          <mxGeometry x="99.99999999999991" y="25.699298316767" width="40" height="40" as="geometry" />
        </mxCell>
        <mxCell id="TIA-kVSFj0vNfFAjIC5h-135" value="22" style="ellipse;whiteSpace=wrap;html=1;aspect=fixed;" vertex="1" parent="TIA-kVSFj0vNfFAjIC5h-113">
          <mxGeometry x="138.1966011250105" y="8.693075814623967" width="40" height="40" as="geometry" />
        </mxCell>
        <mxCell id="TIA-kVSFj0vNfFAjIC5h-136" value="23" style="ellipse;whiteSpace=wrap;html=1;aspect=fixed;" vertex="1" parent="TIA-kVSFj0vNfFAjIC5h-113">
          <mxGeometry x="179.09430734646915" width="40" height="40" as="geometry" />
        </mxCell>
        <mxCell id="TIA-kVSFj0vNfFAjIC5h-137" value="24" style="ellipse;whiteSpace=wrap;html=1;aspect=fixed;" vertex="1" parent="TIA-kVSFj0vNfFAjIC5h-113">
          <mxGeometry x="220.9056926535306" width="40" height="40" as="geometry" />
        </mxCell>
        <mxCell id="TIA-kVSFj0vNfFAjIC5h-138" value="25" style="ellipse;whiteSpace=wrap;html=1;aspect=fixed;" vertex="1" parent="TIA-kVSFj0vNfFAjIC5h-113">
          <mxGeometry x="261.80339887498945" y="8.693075814623938" width="40" height="40" as="geometry" />
        </mxCell>
        <mxCell id="TIA-kVSFj0vNfFAjIC5h-139" value="26" style="ellipse;whiteSpace=wrap;html=1;aspect=fixed;" vertex="1" parent="TIA-kVSFj0vNfFAjIC5h-113">
          <mxGeometry x="300" y="25.699298316766942" width="40" height="40" as="geometry" />
        </mxCell>
        <mxCell id="TIA-kVSFj0vNfFAjIC5h-140" value="27" style="ellipse;whiteSpace=wrap;html=1;aspect=fixed;" vertex="1" parent="TIA-kVSFj0vNfFAjIC5h-113">
          <mxGeometry x="333.8261212717717" y="50.27541397817586" width="40" height="40" as="geometry" />
        </mxCell>
        <mxCell id="TIA-kVSFj0vNfFAjIC5h-141" value="28" style="ellipse;whiteSpace=wrap;html=1;aspect=fixed;" vertex="1" parent="TIA-kVSFj0vNfFAjIC5h-113">
          <mxGeometry x="361.80339887498945" y="81.34732861516" width="40" height="40" as="geometry" />
        </mxCell>
        <mxCell id="TIA-kVSFj0vNfFAjIC5h-142" value="29" style="ellipse;whiteSpace=wrap;html=1;aspect=fixed;" vertex="1" parent="TIA-kVSFj0vNfFAjIC5h-113">
          <mxGeometry x="382.70909152852016" y="117.55705045849464" width="40" height="40" as="geometry" />
        </mxCell>
        <mxCell id="TIA-kVSFj0vNfFAjIC5h-143" value="30" style="ellipse;whiteSpace=wrap;html=1;aspect=fixed;" vertex="1" parent="TIA-kVSFj0vNfFAjIC5h-113">
          <mxGeometry x="395.62952014676114" y="157.32204091010286" width="40" height="40" as="geometry" />
        </mxCell>
        <mxCell id="TIA-kVSFj0vNfFAjIC5h-144" value="" style="endArrow=classic;html=1;rounded=0;strokeWidth=0;" edge="1" parent="1">
          <mxGeometry width="50" height="50" relative="1" as="geometry">
            <mxPoint x="929" y="270" as="sourcePoint" />
            <mxPoint x="533.3704798532389" y="228.4176618364482" as="targetPoint" />
          </mxGeometry>
        </mxCell>
        <mxCell id="TIA-kVSFj0vNfFAjIC5h-145" value="" style="endArrow=classic;html=1;rounded=0;strokeWidth=0;" edge="1" parent="1">
          <mxGeometry width="50" height="50" relative="1" as="geometry">
            <mxPoint x="929" y="270" as="sourcePoint" />
            <mxPoint x="595.1738787282284" y="418.62896509547886" as="targetPoint" />
          </mxGeometry>
        </mxCell>
        <mxCell id="TIA-kVSFj0vNfFAjIC5h-146" value="" style="endArrow=classic;html=1;rounded=0;strokeWidth=1;" edge="1" parent="1">
          <mxGeometry width="50" height="50" relative="1" as="geometry">
            <mxPoint x="924.6295201467611" y="311.58233816355187" as="sourcePoint" />
            <mxPoint x="546.2909084714798" y="188.65267138483995" as="targetPoint" />
          </mxGeometry>
        </mxCell>
        <mxCell id="TIA-kVSFj0vNfFAjIC5h-147" value="" style="endArrow=classic;html=1;rounded=0;strokeWidth=0;" edge="1" parent="1">
          <mxGeometry width="50" height="50" relative="1" as="geometry">
            <mxPoint x="911.7090915285202" y="351.34732861516" as="sourcePoint" />
            <mxPoint x="595.1738787282284" y="121.3710349045212" as="targetPoint" />
          </mxGeometry>
        </mxCell>
        <mxCell id="TIA-kVSFj0vNfFAjIC5h-148" value="" style="endArrow=classic;html=1;rounded=0;strokeWidth=0;" edge="1" parent="1">
          <mxGeometry width="50" height="50" relative="1" as="geometry">
            <mxPoint x="911.7090915285202" y="351.34732861516" as="sourcePoint" />
            <mxPoint x="529" y="270.0000000000001" as="targetPoint" />
          </mxGeometry>
        </mxCell>
        <mxCell id="TIA-kVSFj0vNfFAjIC5h-149" value="" style="endArrow=classic;html=1;rounded=0;strokeWidth=0;" edge="1" parent="1">
          <mxGeometry width="50" height="50" relative="1" as="geometry">
            <mxPoint x="911.7090915285202" y="351.34732861516" as="sourcePoint" />
            <mxPoint x="667.1966011250105" y="79.7886967409693" as="targetPoint" />
          </mxGeometry>
        </mxCell>
        <mxCell id="TIA-kVSFj0vNfFAjIC5h-150" value="" style="endArrow=classic;html=1;rounded=0;strokeWidth=0;" edge="1" parent="1">
          <mxGeometry width="50" height="50" relative="1" as="geometry">
            <mxPoint x="911.7090915285202" y="351.34732861516" as="sourcePoint" />
            <mxPoint x="546.2909084714798" y="351.34732861516" as="targetPoint" />
          </mxGeometry>
        </mxCell>
        <mxCell id="TIA-kVSFj0vNfFAjIC5h-151" value="" style="endArrow=classic;html=1;rounded=0;strokeWidth=0;" edge="1" parent="1">
          <mxGeometry width="50" height="50" relative="1" as="geometry">
            <mxPoint x="890.8033988749895" y="387.55705045849464" as="sourcePoint" />
            <mxPoint x="567.1966011250105" y="152.4429495415054" as="targetPoint" />
          </mxGeometry>
        </mxCell>
        <mxCell id="TIA-kVSFj0vNfFAjIC5h-152" value="" style="endArrow=classic;html=1;rounded=0;strokeWidth=0;" edge="1" parent="1">
          <mxGeometry width="50" height="50" relative="1" as="geometry">
            <mxPoint x="890.8033988749895" y="387.55705045849464" as="sourcePoint" />
            <mxPoint x="667.1966011250105" y="79.7886967409693" as="targetPoint" />
          </mxGeometry>
        </mxCell>
        <mxCell id="TIA-kVSFj0vNfFAjIC5h-153" value="" style="endArrow=classic;html=1;rounded=0;strokeWidth=0;" edge="1" parent="1">
          <mxGeometry width="50" height="50" relative="1" as="geometry">
            <mxPoint x="862.8261212717716" y="418.62896509547886" as="sourcePoint" />
            <mxPoint x="628.9999999999999" y="96.79491924311233" as="targetPoint" />
          </mxGeometry>
        </mxCell>
        <mxCell id="TIA-kVSFj0vNfFAjIC5h-154" value="" style="endArrow=classic;html=1;rounded=0;strokeWidth=0;" edge="1" parent="1">
          <mxGeometry width="50" height="50" relative="1" as="geometry">
            <mxPoint x="862.8261212717716" y="418.62896509547886" as="sourcePoint" />
            <mxPoint x="749.9056926535307" y="71.09562092634533" as="targetPoint" />
          </mxGeometry>
        </mxCell>
        <mxCell id="TIA-kVSFj0vNfFAjIC5h-155" value="" style="endArrow=classic;html=1;rounded=0;strokeWidth=0;" edge="1" parent="1">
          <mxGeometry width="50" height="50" relative="1" as="geometry">
            <mxPoint x="829" y="443.2050807568877" as="sourcePoint" />
            <mxPoint x="749.9056926535307" y="71.09562092634533" as="targetPoint" />
          </mxGeometry>
        </mxCell>
        <mxCell id="TIA-kVSFj0vNfFAjIC5h-156" value="" style="endArrow=classic;html=1;rounded=0;strokeWidth=0;" edge="1" parent="1">
          <mxGeometry width="50" height="50" relative="1" as="geometry">
            <mxPoint x="829" y="443.2050807568877" as="sourcePoint" />
            <mxPoint x="546.2909084714798" y="188.65267138483995" as="targetPoint" />
          </mxGeometry>
        </mxCell>
        <mxCell id="TIA-kVSFj0vNfFAjIC5h-157" value="" style="endArrow=classic;html=1;rounded=0;strokeWidth=0;" edge="1" parent="1">
          <mxGeometry width="50" height="50" relative="1" as="geometry">
            <mxPoint x="829" y="443.2050807568877" as="sourcePoint" />
            <mxPoint x="790.8033988749894" y="79.78869674096927" as="targetPoint" />
          </mxGeometry>
        </mxCell>
        <mxCell id="TIA-kVSFj0vNfFAjIC5h-158" value="" style="endArrow=classic;html=1;rounded=0;strokeWidth=0;" edge="1" parent="1">
          <mxGeometry width="50" height="50" relative="1" as="geometry">
            <mxPoint x="829" y="443.2050807568877" as="sourcePoint" />
            <mxPoint x="533.3704798532389" y="228.4176618364482" as="targetPoint" />
          </mxGeometry>
        </mxCell>
        <mxCell id="TIA-kVSFj0vNfFAjIC5h-159" value="" style="endArrow=classic;html=1;rounded=0;strokeWidth=0;" edge="1" parent="1">
          <mxGeometry width="50" height="50" relative="1" as="geometry">
            <mxPoint x="790.8033988749895" y="460.21130325903073" as="sourcePoint" />
            <mxPoint x="628.9999999999999" y="96.79491924311233" as="targetPoint" />
          </mxGeometry>
        </mxCell>
        <mxCell id="TIA-kVSFj0vNfFAjIC5h-160" value="" style="endArrow=classic;html=1;rounded=0;strokeWidth=0;" edge="1" parent="1">
          <mxGeometry width="50" height="50" relative="1" as="geometry">
            <mxPoint x="790.8033988749895" y="460.21130325903073" as="sourcePoint" />
            <mxPoint x="749.9056926535307" y="71.09562092634533" as="targetPoint" />
          </mxGeometry>
        </mxCell>
        <mxCell id="TIA-kVSFj0vNfFAjIC5h-161" value="" style="endArrow=classic;html=1;rounded=0;strokeWidth=0;" edge="1" parent="1">
          <mxGeometry width="50" height="50" relative="1" as="geometry">
            <mxPoint x="790.8033988749895" y="460.21130325903073" as="sourcePoint" />
            <mxPoint x="595.1738787282284" y="121.3710349045212" as="targetPoint" />
          </mxGeometry>
        </mxCell>
        <mxCell id="TIA-kVSFj0vNfFAjIC5h-162" value="" style="endArrow=classic;html=1;rounded=0;strokeWidth=0;" edge="1" parent="1">
          <mxGeometry width="50" height="50" relative="1" as="geometry">
            <mxPoint x="790.8033988749895" y="460.21130325903073" as="sourcePoint" />
            <mxPoint x="567.1966011250105" y="152.4429495415054" as="targetPoint" />
          </mxGeometry>
        </mxCell>
        <mxCell id="TIA-kVSFj0vNfFAjIC5h-163" value="" style="endArrow=classic;html=1;rounded=0;strokeWidth=0;" edge="1" parent="1">
          <mxGeometry width="50" height="50" relative="1" as="geometry">
            <mxPoint x="790.8033988749895" y="460.21130325903073" as="sourcePoint" />
            <mxPoint x="546.2909084714798" y="188.65267138483995" as="targetPoint" />
          </mxGeometry>
        </mxCell>
        <mxCell id="TIA-kVSFj0vNfFAjIC5h-164" value="" style="endArrow=classic;html=1;rounded=0;strokeWidth=0;" edge="1" parent="1">
          <mxGeometry width="50" height="50" relative="1" as="geometry">
            <mxPoint x="749.9056926535307" y="468.9043790736547" as="sourcePoint" />
            <mxPoint x="708.0943073464691" y="71.09562092634533" as="targetPoint" />
          </mxGeometry>
        </mxCell>
        <mxCell id="TIA-kVSFj0vNfFAjIC5h-165" value="" style="endArrow=classic;html=1;rounded=0;strokeWidth=0;" edge="1" parent="1">
          <mxGeometry width="50" height="50" relative="1" as="geometry">
            <mxPoint x="749.9056926535307" y="468.9043790736547" as="sourcePoint" />
            <mxPoint x="749.9056926535307" y="71.09562092634533" as="targetPoint" />
          </mxGeometry>
        </mxCell>
        <mxCell id="TIA-kVSFj0vNfFAjIC5h-166" value="" style="endArrow=classic;html=1;rounded=0;strokeWidth=0;" edge="1" parent="1">
          <mxGeometry width="50" height="50" relative="1" as="geometry">
            <mxPoint x="749.9056926535307" y="468.9043790736547" as="sourcePoint" />
            <mxPoint x="790.8033988749894" y="79.78869674096927" as="targetPoint" />
          </mxGeometry>
        </mxCell>
        <mxCell id="TIA-kVSFj0vNfFAjIC5h-167" value="" style="endArrow=classic;html=1;rounded=0;strokeWidth=0;" edge="1" parent="1">
          <mxGeometry width="50" height="50" relative="1" as="geometry">
            <mxPoint x="749.9056926535307" y="468.9043790736547" as="sourcePoint" />
            <mxPoint x="595.1738787282284" y="121.3710349045212" as="targetPoint" />
          </mxGeometry>
        </mxCell>
        <mxCell id="TIA-kVSFj0vNfFAjIC5h-168" value="" style="endArrow=classic;html=1;rounded=0;strokeWidth=1;" edge="1" parent="1">
          <mxGeometry width="50" height="50" relative="1" as="geometry">
            <mxPoint x="749.9056926535307" y="468.9043790736547" as="sourcePoint" />
            <mxPoint x="862.8261212717716" y="121.3710349045212" as="targetPoint" />
          </mxGeometry>
        </mxCell>
        <mxCell id="TIA-kVSFj0vNfFAjIC5h-169" value="" style="endArrow=classic;html=1;rounded=0;strokeWidth=0;" edge="1" parent="1">
          <mxGeometry width="50" height="50" relative="1" as="geometry">
            <mxPoint x="708.0943073464693" y="468.9043790736547" as="sourcePoint" />
            <mxPoint x="790.8033988749894" y="79.78869674096927" as="targetPoint" />
          </mxGeometry>
        </mxCell>
        <mxCell id="TIA-kVSFj0vNfFAjIC5h-170" value="" style="endArrow=classic;html=1;rounded=0;strokeWidth=0;" edge="1" parent="1">
          <mxGeometry width="50" height="50" relative="1" as="geometry">
            <mxPoint x="708.0943073464693" y="468.9043790736547" as="sourcePoint" />
            <mxPoint x="595.1738787282284" y="121.3710349045212" as="targetPoint" />
          </mxGeometry>
        </mxCell>
        <mxCell id="TIA-kVSFj0vNfFAjIC5h-171" value="" style="endArrow=classic;html=1;rounded=0;strokeWidth=0;" edge="1" parent="1">
          <mxGeometry width="50" height="50" relative="1" as="geometry">
            <mxPoint x="667.1966011250106" y="460.21130325903073" as="sourcePoint" />
            <mxPoint x="667.1966011250105" y="79.7886967409693" as="targetPoint" />
          </mxGeometry>
        </mxCell>
        <mxCell id="TIA-kVSFj0vNfFAjIC5h-172" value="" style="endArrow=classic;html=1;rounded=0;strokeWidth=0;" edge="1" parent="1">
          <mxGeometry width="50" height="50" relative="1" as="geometry">
            <mxPoint x="667.1966011250106" y="460.21130325903073" as="sourcePoint" />
            <mxPoint x="911.7090915285202" y="188.65267138483998" as="targetPoint" />
          </mxGeometry>
        </mxCell>
        <mxCell id="TIA-kVSFj0vNfFAjIC5h-173" value="" style="endArrow=classic;html=1;rounded=0;strokeWidth=0;" edge="1" parent="1">
          <mxGeometry width="50" height="50" relative="1" as="geometry">
            <mxPoint x="629" y="443.20508075688775" as="sourcePoint" />
            <mxPoint x="829" y="96.79491924311228" as="targetPoint" />
          </mxGeometry>
        </mxCell>
        <mxCell id="TIA-kVSFj0vNfFAjIC5h-174" value="" style="endArrow=classic;html=1;rounded=0;strokeWidth=0;" edge="1" parent="1">
          <mxGeometry width="50" height="50" relative="1" as="geometry">
            <mxPoint x="629" y="443.20508075688775" as="sourcePoint" />
            <mxPoint x="790.8033988749894" y="79.78869674096927" as="targetPoint" />
          </mxGeometry>
        </mxCell>
        <mxCell id="TIA-kVSFj0vNfFAjIC5h-175" value="" style="endArrow=classic;html=1;rounded=0;strokeWidth=0;" edge="1" parent="1">
          <mxGeometry width="50" height="50" relative="1" as="geometry">
            <mxPoint x="629" y="443.20508075688775" as="sourcePoint" />
            <mxPoint x="708.0943073464691" y="71.09562092634533" as="targetPoint" />
          </mxGeometry>
        </mxCell>
        <mxCell id="TIA-kVSFj0vNfFAjIC5h-176" value="" style="endArrow=classic;html=1;rounded=0;strokeWidth=0;" edge="1" parent="1">
          <mxGeometry width="50" height="50" relative="1" as="geometry">
            <mxPoint x="595.1738787282284" y="418.62896509547886" as="sourcePoint" />
            <mxPoint x="862.8261212717716" y="121.3710349045212" as="targetPoint" />
          </mxGeometry>
        </mxCell>
        <mxCell id="TIA-kVSFj0vNfFAjIC5h-177" value="" style="endArrow=classic;html=1;rounded=0;strokeWidth=0;" edge="1" parent="1">
          <mxGeometry width="50" height="50" relative="1" as="geometry">
            <mxPoint x="595.1738787282284" y="418.62896509547886" as="sourcePoint" />
            <mxPoint x="911.7090915285202" y="188.65267138483998" as="targetPoint" />
          </mxGeometry>
        </mxCell>
        <mxCell id="TIA-kVSFj0vNfFAjIC5h-178" value="" style="endArrow=classic;html=1;rounded=0;strokeWidth=0;" edge="1" parent="1">
          <mxGeometry width="50" height="50" relative="1" as="geometry">
            <mxPoint x="567.1966011250106" y="387.55705045849464" as="sourcePoint" />
            <mxPoint x="924.6295201467611" y="311.58233816355187" as="targetPoint" />
          </mxGeometry>
        </mxCell>
        <mxCell id="TIA-kVSFj0vNfFAjIC5h-179" value="" style="endArrow=classic;html=1;rounded=0;strokeWidth=0;" edge="1" parent="1">
          <mxGeometry width="50" height="50" relative="1" as="geometry">
            <mxPoint x="567.1966011250106" y="387.55705045849464" as="sourcePoint" />
            <mxPoint x="749.9056926535307" y="71.09562092634533" as="targetPoint" />
          </mxGeometry>
        </mxCell>
        <mxCell id="TIA-kVSFj0vNfFAjIC5h-180" value="" style="endArrow=classic;html=1;rounded=0;strokeWidth=0;" edge="1" parent="1">
          <mxGeometry width="50" height="50" relative="1" as="geometry">
            <mxPoint x="546.2909084714798" y="351.34732861516" as="sourcePoint" />
            <mxPoint x="911.7090915285202" y="188.65267138483998" as="targetPoint" />
          </mxGeometry>
        </mxCell>
        <mxCell id="TIA-kVSFj0vNfFAjIC5h-181" value="" style="endArrow=classic;html=1;rounded=0;strokeWidth=3;" edge="1" parent="1">
          <mxGeometry width="50" height="50" relative="1" as="geometry">
            <mxPoint x="533.3704798532389" y="311.58233816355187" as="sourcePoint" />
            <mxPoint x="929" y="270" as="targetPoint" />
          </mxGeometry>
        </mxCell>
        <mxCell id="TIA-kVSFj0vNfFAjIC5h-182" value="" style="endArrow=classic;html=1;rounded=0;strokeWidth=0;" edge="1" parent="1">
          <mxGeometry width="50" height="50" relative="1" as="geometry">
            <mxPoint x="533.3704798532389" y="311.58233816355187" as="sourcePoint" />
            <mxPoint x="924.6295201467611" y="311.58233816355187" as="targetPoint" />
          </mxGeometry>
        </mxCell>
        <mxCell id="TIA-kVSFj0vNfFAjIC5h-183" value="" style="endArrow=classic;html=1;rounded=0;strokeWidth=0;" edge="1" parent="1">
          <mxGeometry width="50" height="50" relative="1" as="geometry">
            <mxPoint x="529" y="270.0000000000001" as="sourcePoint" />
            <mxPoint x="924.6295201467611" y="311.58233816355187" as="targetPoint" />
          </mxGeometry>
        </mxCell>
        <mxCell id="TIA-kVSFj0vNfFAjIC5h-184" value="" style="endArrow=classic;html=1;rounded=0;strokeWidth=0;" edge="1" parent="1">
          <mxGeometry width="50" height="50" relative="1" as="geometry">
            <mxPoint x="529" y="270.0000000000001" as="sourcePoint" />
            <mxPoint x="911.7090915285202" y="351.34732861516" as="targetPoint" />
          </mxGeometry>
        </mxCell>
        <mxCell id="TIA-kVSFj0vNfFAjIC5h-185" value="" style="endArrow=classic;html=1;rounded=0;strokeWidth=0;" edge="1" parent="1">
          <mxGeometry width="50" height="50" relative="1" as="geometry">
            <mxPoint x="533.3704798532389" y="228.4176618364482" as="sourcePoint" />
            <mxPoint x="929" y="270" as="targetPoint" />
          </mxGeometry>
        </mxCell>
        <mxCell id="TIA-kVSFj0vNfFAjIC5h-186" value="" style="endArrow=classic;html=1;rounded=0;strokeWidth=0;" edge="1" parent="1">
          <mxGeometry width="50" height="50" relative="1" as="geometry">
            <mxPoint x="533.3704798532389" y="228.4176618364482" as="sourcePoint" />
            <mxPoint x="911.7090915285202" y="351.34732861516" as="targetPoint" />
          </mxGeometry>
        </mxCell>
        <mxCell id="TIA-kVSFj0vNfFAjIC5h-187" value="" style="endArrow=classic;html=1;rounded=0;strokeWidth=0;" edge="1" parent="1">
          <mxGeometry width="50" height="50" relative="1" as="geometry">
            <mxPoint x="533.3704798532389" y="228.4176618364482" as="sourcePoint" />
            <mxPoint x="890.8033988749894" y="152.44294954150533" as="targetPoint" />
          </mxGeometry>
        </mxCell>
        <mxCell id="TIA-kVSFj0vNfFAjIC5h-188" value="" style="endArrow=classic;html=1;rounded=0;strokeWidth=0;" edge="1" parent="1">
          <mxGeometry width="50" height="50" relative="1" as="geometry">
            <mxPoint x="533.3704798532389" y="228.4176618364482" as="sourcePoint" />
            <mxPoint x="829" y="443.2050807568877" as="targetPoint" />
          </mxGeometry>
        </mxCell>
        <mxCell id="TIA-kVSFj0vNfFAjIC5h-189" value="" style="endArrow=classic;html=1;rounded=0;strokeWidth=0;" edge="1" parent="1">
          <mxGeometry width="50" height="50" relative="1" as="geometry">
            <mxPoint x="546.2909084714798" y="188.65267138483995" as="sourcePoint" />
            <mxPoint x="862.8261212717716" y="418.62896509547886" as="targetPoint" />
          </mxGeometry>
        </mxCell>
        <mxCell id="TIA-kVSFj0vNfFAjIC5h-190" value="" style="endArrow=classic;html=1;rounded=0;strokeWidth=0;" edge="1" parent="1">
          <mxGeometry width="50" height="50" relative="1" as="geometry">
            <mxPoint x="546.2909084714798" y="188.65267138483995" as="sourcePoint" />
            <mxPoint x="790.8033988749895" y="460.21130325903073" as="targetPoint" />
          </mxGeometry>
        </mxCell>
        <mxCell id="TIA-kVSFj0vNfFAjIC5h-191" value="" style="endArrow=classic;html=1;rounded=0;strokeWidth=0;" edge="1" parent="1">
          <mxGeometry width="50" height="50" relative="1" as="geometry">
            <mxPoint x="546.2909084714798" y="188.65267138483995" as="sourcePoint" />
            <mxPoint x="911.7090915285202" y="188.65267138483998" as="targetPoint" />
          </mxGeometry>
        </mxCell>
        <mxCell id="TIA-kVSFj0vNfFAjIC5h-192" value="" style="endArrow=classic;html=1;rounded=0;strokeWidth=0;" edge="1" parent="1">
          <mxGeometry width="50" height="50" relative="1" as="geometry">
            <mxPoint x="567.1966011250105" y="152.4429495415054" as="sourcePoint" />
            <mxPoint x="862.8261212717716" y="418.62896509547886" as="targetPoint" />
          </mxGeometry>
        </mxCell>
        <mxCell id="TIA-kVSFj0vNfFAjIC5h-193" value="" style="endArrow=classic;html=1;rounded=0;strokeWidth=4;" edge="1" parent="1">
          <mxGeometry width="50" height="50" relative="1" as="geometry">
            <mxPoint x="567.1966011250105" y="152.4429495415054" as="sourcePoint" />
            <mxPoint x="911.7090915285202" y="351.34732861516" as="targetPoint" />
          </mxGeometry>
        </mxCell>
        <mxCell id="TIA-kVSFj0vNfFAjIC5h-194" value="" style="endArrow=classic;html=1;rounded=0;strokeWidth=1;" edge="1" parent="1">
          <mxGeometry width="50" height="50" relative="1" as="geometry">
            <mxPoint x="567.1966011250105" y="152.4429495415054" as="sourcePoint" />
            <mxPoint x="790.8033988749895" y="460.21130325903073" as="targetPoint" />
          </mxGeometry>
        </mxCell>
        <mxCell id="TIA-kVSFj0vNfFAjIC5h-195" value="" style="endArrow=classic;html=1;rounded=0;strokeWidth=0;" edge="1" parent="1">
          <mxGeometry width="50" height="50" relative="1" as="geometry">
            <mxPoint x="567.1966011250105" y="152.4429495415054" as="sourcePoint" />
            <mxPoint x="924.6295201467611" y="228.4176618364482" as="targetPoint" />
          </mxGeometry>
        </mxCell>
        <mxCell id="TIA-kVSFj0vNfFAjIC5h-196" value="" style="endArrow=classic;html=1;rounded=0;strokeWidth=0;" edge="1" parent="1">
          <mxGeometry width="50" height="50" relative="1" as="geometry">
            <mxPoint x="567.1966011250105" y="152.4429495415054" as="sourcePoint" />
            <mxPoint x="749.9056926535307" y="468.9043790736547" as="targetPoint" />
          </mxGeometry>
        </mxCell>
        <mxCell id="TIA-kVSFj0vNfFAjIC5h-197" value="" style="endArrow=classic;html=1;rounded=0;strokeWidth=2;" edge="1" parent="1">
          <mxGeometry width="50" height="50" relative="1" as="geometry">
            <mxPoint x="595.1738787282284" y="121.3710349045212" as="sourcePoint" />
            <mxPoint x="890.8033988749895" y="387.55705045849464" as="targetPoint" />
          </mxGeometry>
        </mxCell>
        <mxCell id="TIA-kVSFj0vNfFAjIC5h-198" value="" style="endArrow=classic;html=1;rounded=0;strokeWidth=0;" edge="1" parent="1">
          <mxGeometry width="50" height="50" relative="1" as="geometry">
            <mxPoint x="595.1738787282284" y="121.3710349045212" as="sourcePoint" />
            <mxPoint x="749.9056926535307" y="468.9043790736547" as="targetPoint" />
          </mxGeometry>
        </mxCell>
        <mxCell id="TIA-kVSFj0vNfFAjIC5h-199" value="" style="endArrow=classic;html=1;rounded=0;strokeWidth=0;" edge="1" parent="1">
          <mxGeometry width="50" height="50" relative="1" as="geometry">
            <mxPoint x="595.1738787282284" y="121.3710349045212" as="sourcePoint" />
            <mxPoint x="924.6295201467611" y="311.58233816355187" as="targetPoint" />
          </mxGeometry>
        </mxCell>
        <mxCell id="TIA-kVSFj0vNfFAjIC5h-200" value="" style="endArrow=classic;html=1;rounded=0;strokeWidth=0;" edge="1" parent="1">
          <mxGeometry width="50" height="50" relative="1" as="geometry">
            <mxPoint x="628.9999999999999" y="96.79491924311233" as="sourcePoint" />
            <mxPoint x="862.8261212717716" y="418.62896509547886" as="targetPoint" />
          </mxGeometry>
        </mxCell>
        <mxCell id="TIA-kVSFj0vNfFAjIC5h-201" value="" style="endArrow=classic;html=1;rounded=0;strokeWidth=0;" edge="1" parent="1">
          <mxGeometry width="50" height="50" relative="1" as="geometry">
            <mxPoint x="628.9999999999999" y="96.79491924311233" as="sourcePoint" />
            <mxPoint x="708.0943073464693" y="468.9043790736547" as="targetPoint" />
          </mxGeometry>
        </mxCell>
        <mxCell id="TIA-kVSFj0vNfFAjIC5h-202" value="" style="endArrow=classic;html=1;rounded=0;strokeWidth=0;" edge="1" parent="1">
          <mxGeometry width="50" height="50" relative="1" as="geometry">
            <mxPoint x="628.9999999999999" y="96.79491924311233" as="sourcePoint" />
            <mxPoint x="911.7090915285202" y="351.34732861516" as="targetPoint" />
          </mxGeometry>
        </mxCell>
        <mxCell id="TIA-kVSFj0vNfFAjIC5h-203" value="" style="endArrow=classic;html=1;rounded=0;strokeWidth=0;" edge="1" parent="1">
          <mxGeometry width="50" height="50" relative="1" as="geometry">
            <mxPoint x="667.1966011250105" y="79.7886967409693" as="sourcePoint" />
            <mxPoint x="749.9056926535307" y="468.9043790736547" as="targetPoint" />
          </mxGeometry>
        </mxCell>
        <mxCell id="TIA-kVSFj0vNfFAjIC5h-204" value="" style="endArrow=classic;html=1;rounded=0;strokeWidth=0;" edge="1" parent="1">
          <mxGeometry width="50" height="50" relative="1" as="geometry">
            <mxPoint x="667.1966011250105" y="79.7886967409693" as="sourcePoint" />
            <mxPoint x="829" y="443.2050807568877" as="targetPoint" />
          </mxGeometry>
        </mxCell>
        <mxCell id="TIA-kVSFj0vNfFAjIC5h-205" value="" style="endArrow=classic;html=1;rounded=0;strokeWidth=0;" edge="1" parent="1">
          <mxGeometry width="50" height="50" relative="1" as="geometry">
            <mxPoint x="667.1966011250105" y="79.7886967409693" as="sourcePoint" />
            <mxPoint x="708.0943073464693" y="468.9043790736547" as="targetPoint" />
          </mxGeometry>
        </mxCell>
        <mxCell id="TIA-kVSFj0vNfFAjIC5h-206" value="" style="endArrow=classic;html=1;rounded=0;strokeWidth=3;" edge="1" parent="1">
          <mxGeometry width="50" height="50" relative="1" as="geometry">
            <mxPoint x="708.0943073464691" y="71.09562092634533" as="sourcePoint" />
            <mxPoint x="667.1966011250106" y="460.21130325903073" as="targetPoint" />
          </mxGeometry>
        </mxCell>
        <mxCell id="TIA-kVSFj0vNfFAjIC5h-207" value="" style="endArrow=classic;html=1;rounded=0;strokeWidth=0;" edge="1" parent="1">
          <mxGeometry width="50" height="50" relative="1" as="geometry">
            <mxPoint x="708.0943073464691" y="71.09562092634533" as="sourcePoint" />
            <mxPoint x="829" y="443.2050807568877" as="targetPoint" />
          </mxGeometry>
        </mxCell>
        <mxCell id="TIA-kVSFj0vNfFAjIC5h-208" value="" style="endArrow=classic;html=1;rounded=0;strokeWidth=0;" edge="1" parent="1">
          <mxGeometry width="50" height="50" relative="1" as="geometry">
            <mxPoint x="708.0943073464691" y="71.09562092634533" as="sourcePoint" />
            <mxPoint x="629" y="443.20508075688775" as="targetPoint" />
          </mxGeometry>
        </mxCell>
        <mxCell id="TIA-kVSFj0vNfFAjIC5h-209" value="" style="endArrow=classic;html=1;rounded=0;strokeWidth=0;" edge="1" parent="1">
          <mxGeometry width="50" height="50" relative="1" as="geometry">
            <mxPoint x="790.8033988749894" y="79.78869674096927" as="sourcePoint" />
            <mxPoint x="567.1966011250106" y="387.55705045849464" as="targetPoint" />
          </mxGeometry>
        </mxCell>
        <mxCell id="TIA-kVSFj0vNfFAjIC5h-210" value="" style="endArrow=classic;html=1;rounded=0;strokeWidth=1;" edge="1" parent="1">
          <mxGeometry width="50" height="50" relative="1" as="geometry">
            <mxPoint x="790.8033988749894" y="79.78869674096927" as="sourcePoint" />
            <mxPoint x="546.2909084714798" y="351.34732861516" as="targetPoint" />
          </mxGeometry>
        </mxCell>
        <mxCell id="TIA-kVSFj0vNfFAjIC5h-211" value="" style="endArrow=classic;html=1;rounded=0;strokeWidth=1;" edge="1" parent="1">
          <mxGeometry width="50" height="50" relative="1" as="geometry">
            <mxPoint x="790.8033988749894" y="79.78869674096927" as="sourcePoint" />
            <mxPoint x="829" y="443.2050807568877" as="targetPoint" />
          </mxGeometry>
        </mxCell>
        <mxCell id="TIA-kVSFj0vNfFAjIC5h-212" value="" style="endArrow=classic;html=1;rounded=0;strokeWidth=0;" edge="1" parent="1">
          <mxGeometry width="50" height="50" relative="1" as="geometry">
            <mxPoint x="829" y="96.79491924311228" as="sourcePoint" />
            <mxPoint x="629" y="443.20508075688775" as="targetPoint" />
          </mxGeometry>
        </mxCell>
        <mxCell id="TIA-kVSFj0vNfFAjIC5h-213" value="" style="endArrow=classic;html=1;rounded=0;strokeWidth=0;" edge="1" parent="1">
          <mxGeometry width="50" height="50" relative="1" as="geometry">
            <mxPoint x="829" y="96.79491924311228" as="sourcePoint" />
            <mxPoint x="667.1966011250106" y="460.21130325903073" as="targetPoint" />
          </mxGeometry>
        </mxCell>
        <mxCell id="TIA-kVSFj0vNfFAjIC5h-214" value="" style="endArrow=classic;html=1;rounded=0;strokeWidth=0;" edge="1" parent="1">
          <mxGeometry width="50" height="50" relative="1" as="geometry">
            <mxPoint x="829" y="96.79491924311228" as="sourcePoint" />
            <mxPoint x="546.2909084714798" y="351.34732861516" as="targetPoint" />
          </mxGeometry>
        </mxCell>
        <mxCell id="TIA-kVSFj0vNfFAjIC5h-215" value="" style="endArrow=classic;html=1;rounded=0;strokeWidth=0;" edge="1" parent="1">
          <mxGeometry width="50" height="50" relative="1" as="geometry">
            <mxPoint x="862.8261212717716" y="121.3710349045212" as="sourcePoint" />
            <mxPoint x="546.2909084714798" y="351.34732861516" as="targetPoint" />
          </mxGeometry>
        </mxCell>
        <mxCell id="TIA-kVSFj0vNfFAjIC5h-216" value="" style="endArrow=classic;html=1;rounded=0;strokeWidth=0;" edge="1" parent="1">
          <mxGeometry width="50" height="50" relative="1" as="geometry">
            <mxPoint x="862.8261212717716" y="121.3710349045212" as="sourcePoint" />
            <mxPoint x="533.3704798532389" y="311.58233816355187" as="targetPoint" />
          </mxGeometry>
        </mxCell>
        <mxCell id="TIA-kVSFj0vNfFAjIC5h-217" value="" style="endArrow=classic;html=1;rounded=0;strokeWidth=1;" edge="1" parent="1">
          <mxGeometry width="50" height="50" relative="1" as="geometry">
            <mxPoint x="890.8033988749894" y="152.44294954150533" as="sourcePoint" />
            <mxPoint x="533.3704798532389" y="311.58233816355187" as="targetPoint" />
          </mxGeometry>
        </mxCell>
        <mxCell id="TIA-kVSFj0vNfFAjIC5h-218" value="" style="endArrow=classic;html=1;rounded=0;strokeWidth=0;" edge="1" parent="1">
          <mxGeometry width="50" height="50" relative="1" as="geometry">
            <mxPoint x="911.7090915285202" y="188.65267138483998" as="sourcePoint" />
            <mxPoint x="533.3704798532389" y="311.58233816355187" as="targetPoint" />
          </mxGeometry>
        </mxCell>
        <mxCell id="TIA-kVSFj0vNfFAjIC5h-219" value="" style="endArrow=classic;html=1;rounded=0;strokeWidth=0;" edge="1" parent="1">
          <mxGeometry width="50" height="50" relative="1" as="geometry">
            <mxPoint x="911.7090915285202" y="188.65267138483998" as="sourcePoint" />
            <mxPoint x="567.1966011250106" y="387.55705045849464" as="targetPoint" />
          </mxGeometry>
        </mxCell>
        <mxCell id="TIA-kVSFj0vNfFAjIC5h-220" value="" style="endArrow=classic;html=1;rounded=0;strokeWidth=0;" edge="1" parent="1">
          <mxGeometry width="50" height="50" relative="1" as="geometry">
            <mxPoint x="911.7090915285202" y="188.65267138483998" as="sourcePoint" />
            <mxPoint x="529" y="270.0000000000001" as="targetPoint" />
          </mxGeometry>
        </mxCell>
        <mxCell id="TIA-kVSFj0vNfFAjIC5h-221" value="" style="endArrow=classic;html=1;rounded=0;strokeWidth=1;" edge="1" parent="1">
          <mxGeometry width="50" height="50" relative="1" as="geometry">
            <mxPoint x="911.7090915285202" y="188.65267138483998" as="sourcePoint" />
            <mxPoint x="629" y="443.20508075688775" as="targetPoint" />
          </mxGeometry>
        </mxCell>
        <mxCell id="TIA-kVSFj0vNfFAjIC5h-222" value="" style="endArrow=classic;html=1;rounded=0;strokeWidth=0;" edge="1" parent="1">
          <mxGeometry width="50" height="50" relative="1" as="geometry">
            <mxPoint x="911.7090915285202" y="188.65267138483998" as="sourcePoint" />
            <mxPoint x="546.2909084714798" y="188.65267138483995" as="targetPoint" />
          </mxGeometry>
        </mxCell>
        <mxCell id="TIA-kVSFj0vNfFAjIC5h-223" value="" style="endArrow=classic;html=1;rounded=0;strokeWidth=1;" edge="1" parent="1">
          <mxGeometry width="50" height="50" relative="1" as="geometry">
            <mxPoint x="924.6295201467611" y="228.4176618364482" as="sourcePoint" />
            <mxPoint x="533.3704798532389" y="311.58233816355187" as="targetPoint" />
          </mxGeometry>
        </mxCell>
        <mxCell id="TIA-kVSFj0vNfFAjIC5h-224" value="" style="endArrow=classic;html=1;rounded=0;strokeWidth=0;" edge="1" parent="1">
          <mxGeometry width="50" height="50" relative="1" as="geometry">
            <mxPoint x="924.6295201467611" y="228.4176618364482" as="sourcePoint" />
            <mxPoint x="567.1966011250105" y="152.4429495415054" as="targetPoint" />
          </mxGeometry>
        </mxCell>
      </root>
    </mxGraphModel>
  </diagram>
</mxfile>
